HIERARCHY
ROOT joint_0
{
	OFFSET 0.000000 0.000000 0.000000
	CHANNELS 6 Xposition Yposition Zposition Zrotation Yrotation Xrotation 
	JOINT joint_1
	{
		OFFSET 13.542969 -4.074463 123.986084
		CHANNELS 3 Zrotation Yrotation Xrotation
		JOINT joint_2
		{
			OFFSET -0.108154 -3.018066 113.860962
			CHANNELS 3 Zrotation Yrotation Xrotation
			JOINT joint_3
			{
				OFFSET -1.139648 -3.876465 113.702026
				CHANNELS 3 Zrotation Yrotation Xrotation
				JOINT joint_4
				{
					OFFSET 13.593506 -8.582153 160.876953
					CHANNELS 3 Zrotation Yrotation Xrotation
					JOINT joint_5
					{
						OFFSET 26.480957 -11.565674 94.427979
						CHANNELS 3 Zrotation Yrotation Xrotation
						End Site
						{
							OFFSET 0.000000 0.000000 0.000000
						}
					}
				}
				JOINT joint_6
				{
					OFFSET 3.003662 -39.658691 88.713989
					CHANNELS 3 Zrotation Yrotation Xrotation
					JOINT joint_7
					{
						OFFSET -25.253906 -162.506348 -28.477051
						CHANNELS 3 Zrotation Yrotation Xrotation
						JOINT joint_8
						{
							OFFSET 23.083252 -8.502686 -295.281982
							CHANNELS 3 Zrotation Yrotation Xrotation
							JOINT joint_9
							{
								OFFSET 20.205566 -32.167908 -263.458008
								CHANNELS 3 Zrotation Yrotation Xrotation
								End Site
								{
									OFFSET 0.000000 0.000000 0.000000
								}
							}
						}
					}
				}
				JOINT joint_10
				{
					OFFSET 12.313232 30.012939 91.642944
					CHANNELS 3 Zrotation Yrotation Xrotation
					JOINT joint_11
					{
						OFFSET 31.960205 162.667969 -19.398926
						CHANNELS 3 Zrotation Yrotation Xrotation
						JOINT joint_12
						{
							OFFSET 51.325195 40.249023 -289.038086
							CHANNELS 3 Zrotation Yrotation Xrotation
							JOINT joint_13
							{
								OFFSET 70.170898 60.433594 -249.556030
								CHANNELS 3 Zrotation Yrotation Xrotation
								End Site
								{
									OFFSET 0.000000 0.000000 0.000000
								}
							}
						}
					}
				}
			}
		}
	}
	JOINT joint_14
	{
		OFFSET -15.093262 -91.803833 -113.326904
		CHANNELS 3 Zrotation Yrotation Xrotation
		JOINT joint_15
		{
			OFFSET 2.288818 -12.306763 -494.206055
			CHANNELS 3 Zrotation Yrotation Xrotation
			JOINT joint_16
			{
				OFFSET -54.691650 0.383423 -424.447006
				CHANNELS 3 Zrotation Yrotation Xrotation
				JOINT joint_17
				{
					OFFSET 202.154297 -21.791382 -80.181999
					CHANNELS 3 Zrotation Yrotation Xrotation
					End Site
					{
						OFFSET 0.000000 0.000000 0.000000
					}
				}
			}
		}
	}
	JOINT joint_18
	{
		OFFSET 10.704102 91.957275 -113.713013
		CHANNELS 3 Zrotation Yrotation Xrotation
		JOINT joint_19
		{
			OFFSET 0.427490 1.374878 -494.359924
			CHANNELS 3 Zrotation Yrotation Xrotation
			JOINT joint_20
			{
				OFFSET -53.071777 2.769531 -424.643028
				CHANNELS 3 Zrotation Yrotation Xrotation
				JOINT joint_21
				{
					OFFSET 200.264648 -28.253052 -82.862999
					CHANNELS 3 Zrotation Yrotation Xrotation
					End Site
					{
						OFFSET 0.000000 0.000000 0.000000
					}
				}
			}
		}
	}
}
MOTION
Frames: 15
Frame Time: 0.016667
-3201.662354 1299.021240 1145.729980 1.028108 -1.863589 0.356460 0.179611 -1.620686 1.585059 0.224154 0.203117 -0.332699 0.212216 -0.326158 0.231262 0.840879 0.984801 -2.570153 0.000000 0.000000 0.000000 4.702365 -0.873325 1.791753 0.107361 -0.378233 3.839024 -0.560953 1.651712 -4.132721 0.000000 0.000000 0.000000 1.180873 0.441083 0.540118 -0.298587 0.902710 -2.711317 0.138165 0.616790 -0.042912 0.000000 0.000000 0.000000 -2.623894 4.223236 1.297754 -2.419870 -4.987942 -0.854251 -2.436182 0.082069 -0.955802 0.000000 0.000000 0.000000 0.785857 0.414578 0.695947 0.775297 -2.461122 -0.348894 0.682512 3.132649 0.723528 0.000000 0.000000 0.000000 
-3201.395264 1298.774292 1145.629028 1.031852 -1.877139 0.390360 0.195712 -1.644248 1.557284 0.241329 0.213387 -0.322561 0.228695 -0.332947 0.225138 0.838926 0.973542 -2.567968 0.000000 0.000000 0.000000 4.899072 -0.896564 1.820981 0.062373 -0.378898 3.992954 -0.657033 2.116579 -4.480634 0.000000 0.000000 0.000000 1.176001 0.424887 0.586039 -0.311211 0.913628 -2.807987 0.146169 0.639039 -0.033890 0.000000 0.000000 0.000000 -2.621478 4.244765 1.281459 -2.417405 -4.970347 -0.864934 -2.434659 0.057130 -0.957890 0.000000 0.000000 0.000000 0.784734 0.450997 0.676292 0.774044 -2.479908 -0.354080 0.680634 3.156083 0.726064 0.000000 0.000000 0.000000 
-3200.947266 1298.489746 1145.500000 1.056820 -1.880105 0.424970 0.221469 -1.678773 1.515295 0.268840 0.229858 -0.307234 0.255150 -0.342869 0.216603 0.832950 0.944271 -2.559612 0.000000 0.000000 0.000000 5.177713 -0.948201 1.871773 -0.006078 -0.392636 4.187265 -0.793424 2.771114 -4.945295 0.000000 0.000000 0.000000 1.169600 0.397025 0.665465 -0.330653 0.926394 -2.942927 0.153810 0.658582 -0.023960 0.000000 0.000000 0.000000 -2.623062 4.270523 1.271122 -2.418765 -4.959196 -0.882241 -2.437510 0.022583 -0.962739 0.000000 0.000000 0.000000 0.777961 0.486646 0.660521 0.767114 -2.504462 -0.365281 0.672716 3.177741 0.725862 0.000000 0.000000 0.000000 
-3200.187256 1298.204590 1145.375000 1.195026 -1.810570 0.448868 0.283983 -1.733944 1.423680 0.334201 0.238825 -0.273965 0.319348 -0.355328 0.198250 0.806814 0.866905 -2.501940 0.000000 0.000000 0.000000 5.540450 -1.082663 1.983618 -0.110342 -0.439810 4.257849 -0.959850 3.572455 -5.420336 0.000000 0.000000 0.000000 1.169450 0.315462 0.821258 -0.376286 0.918259 -3.187303 0.153088 0.649038 -0.018937 0.000000 0.000000 0.000000 -2.652269 4.238277 1.282687 -2.448940 -4.938062 -0.905687 -2.467980 -0.022367 -0.979652 0.000000 0.000000 0.000000 0.736462 0.450659 0.667926 0.725622 -2.536276 -0.406194 0.628434 3.204259 0.711357 0.000000 0.000000 0.000000 
-3199.245850 1297.891846 1145.244019 1.453604 -1.637650 0.456361 0.405891 -1.817427 1.258305 0.459944 0.226814 -0.210967 0.444376 -0.360176 0.160796 0.754662 0.737328 -2.375700 0.000000 0.000000 0.000000 6.046099 -1.353657 2.171012 -0.256462 -0.549768 4.135405 -1.157101 4.435758 -5.950388 0.000000 0.000000 0.000000 1.164627 0.140698 1.096859 -0.457678 0.872636 -3.612740 0.158869 0.621016 0.024594 0.000000 0.000000 0.000000 -2.704988 4.092443 1.325235 -2.505445 -4.879507 -0.929065 -2.522542 -0.074416 -1.006897 0.000000 0.000000 0.000000 0.661930 0.286945 0.715388 0.651536 -2.549228 -0.494121 0.547382 3.236275 0.682475 0.000000 0.000000 0.000000 
-3197.993652 1297.578491 1145.116943 1.825886 -1.392076 0.454821 0.566344 -1.916774 1.045443 0.624842 0.204311 -0.129572 0.608617 -0.364959 0.112601 0.684861 0.551803 -2.212468 0.000000 0.000000 0.000000 6.630104 -1.707866 2.403898 -0.457029 -0.690339 3.863523 -1.396532 5.453551 -6.442835 0.000000 0.000000 0.000000 1.158903 -0.087805 1.442844 -0.565004 0.804541 -4.140550 0.153659 0.565426 0.052514 0.000000 0.000000 0.000000 -2.785486 3.887958 1.388938 -2.591037 -4.810808 -0.957701 -2.604957 -0.136215 -1.046228 0.000000 0.000000 0.000000 0.552458 0.050432 0.786173 0.542820 -2.568669 -0.612677 0.429858 3.275165 0.639525 0.000000 0.000000 0.000000 
-3195.902588 1297.384521 1145.046997 2.381542 -1.103557 0.452364 0.722959 -2.018912 0.829967 0.786965 0.201482 -0.055814 0.768968 -0.390718 0.072132 0.602494 0.271601 -2.050485 0.000000 0.000000 0.000000 7.129222 -2.039659 2.648841 -0.729574 -0.791403 3.466547 -1.680833 6.828934 -6.578182 0.000000 0.000000 0.000000 1.198181 -0.297422 1.768569 -0.689149 0.734793 -4.617790 0.081411 0.434195 -0.091352 0.000000 0.000000 0.000000 -2.929639 3.727558 1.463177 -2.738138 -4.797446 -1.009053 -2.748982 -0.219096 -1.112174 0.000000 0.000000 0.000000 0.374840 -0.162722 0.852711 0.365832 -2.674461 -0.738708 0.247517 3.324344 0.571287 0.000000 0.000000 0.000000 
-3192.756104 1297.206421 1145.098022 3.183201 -0.767833 0.442404 0.869018 -2.118527 0.631428 0.940097 0.237271 -0.004855 0.918283 -0.456995 0.046411 0.496511 -0.176569 -1.888815 0.000000 0.000000 0.000000 7.498569 -2.364072 2.938536 -1.135200 -0.849777 2.864286 -2.055773 8.876861 -6.101597 0.000000 0.000000 0.000000 1.330157 -0.488667 2.032813 -0.831404 0.636188 -4.974569 -0.084282 0.232408 -0.501002 0.000000 0.000000 0.000000 -3.167660 3.643519 1.568691 -2.975344 -4.877081 -1.091368 -2.983293 -0.319404 -1.215642 0.000000 0.000000 0.000000 0.108233 -0.348598 0.943578 0.099725 -2.872715 -0.893415 -0.021565 3.379031 0.468048 0.000000 0.000000 0.000000 
-3188.771973 1297.147583 1145.206055 4.168184 -0.388694 0.437283 1.012121 -2.215241 0.438096 1.090964 0.290738 0.033730 1.064432 -0.543936 0.025695 0.378226 -0.723830 -1.740643 0.000000 0.000000 0.000000 7.792754 -2.665720 3.263531 -1.654657 -0.851423 2.100181 -2.509277 11.201642 -5.201471 0.000000 0.000000 0.000000 1.507814 -0.664648 2.266400 -0.989556 0.526846 -5.255375 -0.320321 -0.013009 -1.108905 0.000000 0.000000 0.000000 -3.469564 3.601923 1.688192 -3.273892 -5.011207 -1.196469 -3.279061 -0.435787 -1.345042 0.000000 0.000000 0.000000 -0.226300 -0.513295 1.036530 -0.234348 -3.156661 -1.062203 -0.355292 3.450911 0.340585 0.000000 0.000000 0.000000 
-3184.076416 1297.634644 1145.240967 5.220031 -0.007197 0.473258 1.130096 -2.306351 0.241020 1.215999 0.327725 0.073259 1.185852 -0.613680 0.005265 0.283839 -1.185619 -1.646308 0.000000 0.000000 0.000000 8.001826 -2.789755 3.523863 -2.129429 -0.722581 1.449938 -2.915791 12.979291 -4.284460 0.000000 0.000000 0.000000 1.644615 -0.755082 2.490592 -1.150014 0.496824 -5.476711 -0.607953 -0.324168 -1.817778 0.000000 0.000000 0.000000 -3.781202 3.605125 1.754806 -3.580395 -5.150416 -1.318851 -3.584176 -0.579422 -1.480913 0.000000 0.000000 0.000000 -0.600902 -0.575367 1.029090 -0.609339 -3.587600 -1.167049 -0.717818 3.570968 0.208072 0.000000 0.000000 0.000000 
-3178.589355 1298.793945 1145.192017 6.325640 0.365946 0.559791 1.204123 -2.393994 0.053308 1.296292 0.337099 0.106751 1.264306 -0.654206 -0.012095 0.225727 -1.501534 -1.614249 0.000000 0.000000 0.000000 8.106642 -2.624153 3.668086 -2.446101 -0.405890 1.108804 -3.180843 13.925975 -3.460101 0.000000 0.000000 0.000000 1.700322 -0.707857 2.745895 -1.320767 0.614022 -5.650857 -0.972391 -0.759613 -2.648162 0.000000 0.000000 0.000000 -4.136482 3.718875 1.745503 -3.924986 -5.390860 -1.465832 -3.929754 -0.746072 -1.634913 0.000000 0.000000 0.000000 -1.024187 -0.453130 0.876807 -1.035012 -4.299260 -1.152681 -1.109837 3.814813 0.080972 0.000000 0.000000 0.000000 
-3172.389893 1300.499268 1145.068970 7.498581 0.737914 0.685855 1.252233 -2.478205 -0.130508 1.349844 0.332291 0.132597 1.316910 -0.679374 -0.026458 0.188982 -1.724982 -1.613812 0.000000 0.000000 0.000000 8.128659 -2.282209 3.759232 -2.658822 0.028531 0.932310 -3.348202 14.369820 -2.667202 0.000000 0.000000 0.000000 1.722347 -0.573581 2.981930 -1.500639 0.804781 -5.732256 -1.395881 -1.258348 -3.575182 0.000000 0.000000 0.000000 -4.502599 3.881271 1.692168 -4.278114 -5.636183 -1.631222 -4.285609 -0.927898 -1.794186 0.000000 0.000000 0.000000 -1.490225 -0.220679 0.639625 -1.504537 -5.163294 -1.080474 -1.531505 4.123226 -0.049031 0.000000 0.000000 0.000000 
-3165.841797 1302.812744 1144.772949 8.670671 1.092679 0.852819 1.302787 -2.554278 -0.346158 1.403950 0.318893 0.173368 1.370233 -0.695010 -0.055102 0.167441 -1.831696 -1.605325 0.000000 0.000000 0.000000 8.115802 -1.941617 3.827379 -2.810556 0.445769 0.750766 -3.461864 14.492196 -2.100444 0.000000 0.000000 0.000000 1.765138 -0.434321 3.103052 -1.658991 0.954816 -5.676151 -1.789273 -1.683940 -4.417777 0.000000 0.000000 0.000000 -4.727649 3.908227 1.601213 -4.499979 -5.549280 -1.781879 -4.509512 -1.143237 -1.904929 0.000000 0.000000 0.000000 -1.949615 -0.028555 0.363559 -1.966553 -5.847566 -1.040887 -1.948101 4.311986 -0.193734 0.000000 0.000000 0.000000 
-3159.038574 1306.014160 1144.249023 9.823223 1.437960 1.088120 1.368792 -2.634349 -0.656675 1.472163 0.287310 0.259936 1.437839 -0.700386 -0.109889 0.159046 -1.784416 -1.555712 0.000000 0.000000 0.000000 8.065350 -1.650700 3.838690 -2.897189 0.793654 0.538619 -3.526863 14.326977 -1.920580 0.000000 0.000000 0.000000 1.859334 -0.313111 3.050396 -1.789698 1.015938 -5.440672 -2.145137 -2.022617 -5.167701 0.000000 0.000000 0.000000 -4.710818 3.762725 1.452085 -4.491938 -5.100890 -1.852168 -4.499305 -1.361262 -1.923784 0.000000 0.000000 0.000000 -2.390975 0.068991 0.004177 -2.409229 -6.256485 -1.040876 -2.352042 4.310557 -0.360132 0.000000 0.000000 0.000000 
-3151.887695 1309.822754 1143.551025 10.979279 1.760647 1.367138 1.435984 -2.698777 -1.007594 1.539887 0.243609 0.361077 1.505526 -0.693544 -0.175615 0.160859 -1.626083 -1.476831 0.000000 0.000000 0.000000 7.974308 -1.354182 3.806371 -2.907435 1.120917 0.341503 -3.527254 13.890555 -2.007588 0.000000 0.000000 0.000000 1.973520 -0.189266 2.890946 -1.897378 1.035527 -5.079043 -2.468739 -2.291821 -5.834461 0.000000 0.000000 0.000000 -4.553236 3.491374 1.242940 -4.355059 -4.332365 -1.866075 -4.360126 -1.616152 -1.895839 0.000000 0.000000 0.000000 -2.825709 0.130368 -0.403954 -2.844306 -6.483699 -1.068084 -2.753048 4.183789 -0.543063 0.000000 0.000000 0.000000 
